<svg xmlns="http://www.w3.org/2000/svg" viewBox="0 0 600 450" width="600" height="450">
  <defs>
    <style>
      .text-title { font-family: 'Inter', system-ui, sans-serif; fill: white; text-anchor: middle; font-size: 15px; font-weight: 700; }
      .text-sm { font-family: 'Inter', system-ui, sans-serif; fill: #cbd5e1; text-anchor: middle; font-size: 12px; font-weight: 500; }
      .text-bold { font-family: 'Inter', system-ui, sans-serif; fill: #38bdf8; text-anchor: middle; font-size: 16px; font-weight: 700; }
      
      .bg { fill: #0f172a; }
      .containment { fill: none; stroke: #f43f5e; stroke-width: 2; stroke-dasharray: 8 8; rx: 16; ry: 16; }
      .harness-core { fill: #1e293b; stroke: #8b5cf6; stroke-width: 3; rx: 12; ry: 12; }
      .skill-box { fill: #1e3a8a; stroke: #38bdf8; stroke-width: 2; rx: 8; ry: 8; }
      .line { fill: none; stroke: #cbd5e1; stroke-width: 2; }
      .gate-pass { fill: #10b981; } 
    </style>
    <marker id="arrow" viewBox="0 0 10 10" refX="9" refY="5" markerWidth="6" markerHeight="6" orient="auto-start-reverse">
      <path d="M 0 0 L 10 5 L 0 10 z" fill="#cbd5e1" />
    </marker>
  </defs>

  <rect width="100%" height="100%" class="bg" rx="12" ry="12"/>

  <!-- Safety Containment Field -->
  <rect x="170" y="50" width="400" height="350" class="containment" />
  <text x="370" y="80" class="text-bold" fill="#f43f5e">Harness Safety &amp; Governance Boundary</text>
  <text x="370" y="100" class="text-sm">(Bounded Execution Environment)</text>

  <!-- Harness Core -->
  <rect x="250" y="140" width="180" height="170" class="harness-core" />
  <text x="340" y="195" class="text-title">Agentic Execution</text>
  <text x="340" y="215" class="text-title">Engine</text>
  <text x="340" y="250" class="text-sm" fill="#8b5cf6">State Tracking &amp;</text>
  <text x="340" y="265" class="text-sm" fill="#8b5cf6">Rollback Authority</text>

  <!-- Skill Cartridges Plugging In -->
  <!-- Skill 1 -->
  <rect x="20" y="150" width="120" height="40" class="skill-box" />
  <text x="80" y="175" class="text-title">O-RAN SMO</text>
  <path d="M 140 170 L 250 170" class="line" marker-end="url(#arrow)"/>

  <!-- Skill 2 -->
  <rect x="20" y="205" width="120" height="40" class="skill-box" />
  <text x="80" y="230" class="text-title">3GPP Core</text>
  <path d="M 140 225 L 250 225" class="line" marker-end="url(#arrow)"/>

  <!-- Skill 3 -->
  <rect x="20" y="260" width="120" height="40" class="skill-box" />
  <text x="80" y="285" class="text-title">TMF Catalog</text>
  <path d="M 140 280 L 250 280" class="line" marker-end="url(#arrow)"/>

  <!-- Output / Validation Gate -->
  <path d="M 430 225 L 480 225" class="line" marker-end="url(#arrow)"/>
  <rect x="480" y="195" width="10" height="60" class="gate-pass" />
  <path d="M 490 225 L 530 225" class="line" marker-end="url(#arrow)"/>
  
  <!-- Network State -->
  <circle cx="550" cy="225" r="25" class="skill-box" stroke="#10b981" />
  <text x="550" y="230" class="text-sm">Lab</text>
  
  <!-- Gate Labels -->
  <text x="485" y="180" class="text-sm">Validation Gate</text>
  <text x="485" y="275" class="text-sm">Traceable Evidence</text>

  <!-- Left Side Label -->
  <text x="80" y="130" class="text-bold">Agentic Skills</text>

</svg>
